<svg xmlns="http://www.w3.org/2000/svg" version="1.1" xmlns:xlink="http://www.w3.org/1999/xlink" xmlns:svgjs="http://svgjs.com/svgjs" id="Pattern1274SvgRootPreview" width="100%" height="100%"><defs><pattern x="0" y="0" width="1.925531914893617" height="1.925531914893617" patternUnits="userSpaceOnUse" id="Pattern1274Layer1" viewBox="0 0 1.925531914893617 1.925531914893617" preserveAspectRatio="xMidYMid slice"><g id="PatternRootContent1" transform="scale(1.925531914893617) rotate(0)"><g id="Pattern1274Layer1background"><rect width="1" height="1" id="Pattern1274Background1" class="color_1 fill_color_1" fill="#f8f8f5"></rect></g></g></pattern><pattern x="0" y="0" width="90.5" height="146.3404255319149" patternUnits="userSpaceOnUse" id="Pattern1274Layer2" patternTransform="matrix(0.7071067811865476,0.7071067811865475,-0.7071067811865475,0.7071067811865476,0,0)" viewBox="0 0 90.5 146.3404255319149" preserveAspectRatio="xMidYMid slice"><g id="PatternRootContent2" transform="scale(1.925531914893617) rotate(0)"><g id="Pattern1274Layer2Element2"><use xlink:href="#Pattern1274Element2" x="27" y="-55.32099914550781" transform="translate(47, -19) scale(1) translate(-47, 19) rotate(0, 47, -19)"></use><use xlink:href="#Pattern1274Element2" x="-20" y="-55.32099914550781" transform="translate(0, -19) scale(1) translate(0, 19) rotate(0, 0, -19)"></use><use xlink:href="#Pattern1274Element2" x="3.5" y="-17.320999145507812" transform="translate(23.5, 19) scale(1) translate(-23.5, -19) rotate(0, 23.5, 19)"></use><use xlink:href="#Pattern1274Element2" x="-43.5" y="-17.320999145507812" transform="translate(-23.5, 19) scale(1) translate(23.5, -19) rotate(0, -23.5, 19)"></use><use xlink:href="#Pattern1274Element2" x="27" y="20.679000854492188" transform="translate(47, 57) scale(1) translate(-47, -57) rotate(0, 47, 57)"></use><use xlink:href="#Pattern1274Element2" x="-20" y="20.679000854492188" transform="translate(0, 57) scale(1) translate(0, -57) rotate(0, 0, 57)"></use><use xlink:href="#Pattern1274Element2" x="3.5" y="58.67900085449219" transform="translate(23.5, 95) scale(1) translate(-23.5, -95) rotate(0, 23.5, 95)"></use><use xlink:href="#Pattern1274Element2" x="3.5" y="58.67900085449219" transform="translate(23.5, 95) scale(1) translate(-23.5, -95) rotate(0, 23.5, 95)"></use></g></g></pattern><symbol id="Pattern1274Element2"><g class="color_3 fill_color_3" fill="#76cbdc"><path d="M20,34.641998291015625L0,34.641998291015625L10,17.321001052856445L20,0L30,17.321001052856445L40,34.641998291015625Z"></path><path d="M20,38L40,38L30,55.32099914550781L20,72.64199829101562L10,55.32099914550781L0,38Z"></path></g></symbol></defs><rect width="100%" height="100%" id="Pattern1274RctLayer1" fill="url(#Pattern1274Layer1)"></rect><rect width="100%" height="100%" id="Pattern1274RctLayer2" fill="url(#Pattern1274Layer2)"></rect></svg>